<?xml version="1.0" encoding="UTF-8"?>
<svg xmlns="http://www.w3.org/2000/svg" xmlns:xlink="http://www.w3.org/1999/xlink"
     width="970.0" height="355.1" viewBox="0.0 -355.1 970.0 355.1">
<defs>
</defs>
<g transform="translate(0 -340.1)">
<g transform="translate(0.0 0)">
<rect x="77.97161427611361" y="-10" width="43.7167591245729" height="10" fill="#ff7f0e" stroke="#ff7f0e" />
<g transform="translate(99.82999383840007 0)">
<text x="0" y="0" font-size="10" font-family="monospace" text-anchor="middle">exon2</text>
</g>
</g>
<g transform="translate(0.0 0)">
<rect x="161.82978419536872" y="-10" width="44.691854123634045" height="10" fill="#2ca02c" stroke="#2ca02c" />
<g transform="translate(184.17571125718575 0)">
<text x="0" y="0" font-size="10" font-family="monospace" text-anchor="middle">exon3</text>
</g>
</g>
</g>
<g transform="translate(0 -320.1)">
<g transform="translate(0.0 0)">
<rect x="45.30593180756656" y="-10" width="161.2157065114362" height="10" fill="red" stroke="red" />
</g>
<g transform="translate(0.0 0)">
<rect x="58.15794922716447" y="-10" width="37.527890865225906" height="10" fill="yellow" stroke="yellow" />
</g>
<g transform="translate(0.0 0)">
<rect x="116.14625182439025" y="-10" width="34.64903896323597" height="10" fill="yellow" stroke="yellow" />
</g>
<g transform="translate(0.0 0)">
<rect x="58.15794922716447" y="-10" width="37.527890865225906" height="10" fill="lightgray" stroke="lightgray" />
</g>
<g transform="translate(0.0 0)">
<rect x="116.14625182439025" y="-10" width="34.64903896323597" height="10" fill="lightgray" stroke="lightgray" />
</g>
</g>
<g transform="translate(0.0 -321.6)">
<rect x="125.94977071205952" y="11.5" width="0.0" height="-11.5" fill="transparent" stroke="transparent" />
<g transform="translate(125.94977071205952 0)">
<text x="0" y="0" font-size="10" font-family="monospace" text-anchor="middle">HLA-B-seed</text>
</g>
</g>
<g transform="translate(0 -291.6)">
<g transform="translate(0.0 0)">
<path d="M58.15794922716447,-20.0 L88.68584009239038,-20.0" stroke="black" />
<circle cx="76.92189465977742" cy="-10.0" r="10.0" fill="ivory" stroke="black" />
<path d="M95.68584009239038,-20.0 L88.68584009239038,-23.5 L88.68584009239038,-16.5 L95.68584009239038,-20.0" fill="black" />
<text x="76.92189465977742" y="-10.0" font-size="11.0" text-anchor="middle" dy="0.35em">1</text>
</g>
<g transform="translate(0.0 0)">
<path d="M116.14625182439025,-20.0 L143.79529078762621,-20.0" stroke="black" />
<circle cx="133.47077130600823" cy="-10.0" r="10.0" fill="ivory" stroke="black" />
<path d="M150.79529078762621,-20.0 L143.79529078762621,-23.5 L143.79529078762621,-16.5 L150.79529078762621,-20.0" fill="black" />
<text x="133.47077130600823" y="-10.0" font-size="11.0" text-anchor="middle" dy="0.35em">2</text>
</g>
</g>
<g transform="translate(0 -280.6)">
<g transform="translate(0.0 0)">
<path d="M58.15794922716447,9.5 L88.68584009239038,9.5" stroke="black" />
<path d="M95.68584009239038,9.5 L88.68584009239038,6.0 L88.68584009239038,13.0 L95.68584009239038,9.5" fill="black" />
</g>
</g>
<g transform="translate(0 -260.6)">
<g transform="translate(0.0 0)">
<rect x="58.15794922716447" y="-10" width="37.527890865225906" height="10" fill="lightgrey" stroke="lightgrey" />
<g transform="translate(76.92189465977742 0)">
<text x="0" y="0" font-size="10" font-family="monospace" text-anchor="middle">1</text>
</g>
</g>
</g>
<g transform="translate(0 -249.60000000000002)">
<g transform="translate(0.0 0)">
<path d="M116.14625182439025,9.5 L143.79529078762621,9.5" stroke="black" />
<path d="M150.79529078762621,9.5 L143.79529078762621,6.0 L143.79529078762621,13.0 L150.79529078762621,9.5" fill="black" />
</g>
</g>
<g transform="translate(0 -229.60000000000002)">
<g transform="translate(0.0 0)">
<rect x="116.14625182439025" y="-10" width="34.64903896323597" height="10" fill="lightgrey" stroke="lightgrey" />
<g transform="translate(133.47077130600823 0)">
<text x="0" y="0" font-size="10" font-family="monospace" text-anchor="middle">2</text>
</g>
</g>
</g>
<g transform="translate(0 -209.60000000000002)">
<g transform="translate(0.0 0)">
<rect x="45.399163481211104" y="-10" width="59.015649416996865" height="10" fill="darkgrey" stroke="darkgrey" />
<g transform="translate(74.90698818970954 0)">
<text x="0" y="0" font-size="10" font-family="monospace" text-anchor="middle">5' LTR</text>
</g>
</g>
<g transform="translate(0.0 0)">
<rect x="118.95895398675697" y="-10" width="140.03397381410633" height="10" fill="lightblue" stroke="lightblue" />
<g transform="translate(188.97594089381013 0)">
<text x="0" y="0" font-size="10" font-family="monospace" text-anchor="middle">gag</text>
</g>
</g>
<g transform="translate(0.0 0)">
<rect x="515.286798649717" y="-10" width="53.88790736654687" height="10" fill="steelblue" stroke="steelblue" />
<g transform="translate(542.2307523329904 0)">
<text x="0" y="0" font-size="10" font-family="monospace" text-anchor="middle">vif</text>
</g>
</g>
<g transform="translate(0.0 0)">
<rect x="826.5873569488522" y="-10" width="8.297618954364452" height="10" fill="plum" stroke="plum" />
<g transform="translate(830.7361664260344 0)">
<text x="0" y="0" font-size="10" font-family="monospace" text-anchor="middle">tat</text>
</g>
</g>
<g transform="translate(0.0 0)">
<rect x="865.4649648586274" y="-10" width="57.803637659617834" height="10" fill="mediumaquamarine" stroke="mediumaquamarine" />
<g transform="translate(894.3667836884363 0)">
<text x="0" y="0" font-size="10" font-family="monospace" text-anchor="middle">nef</text>
</g>
</g>
</g>
<g transform="translate(0 -189.60000000000002)">
<g transform="translate(0.0 0)">
<rect x="588.9398208289074" y="-10" width="20.324504854510792" height="10" fill="plum" stroke="plum" />
<g transform="translate(599.1020732561628 0)">
<text x="0" y="0" font-size="10" font-family="monospace" text-anchor="middle">tat</text>
</g>
</g>
<g transform="translate(0.0 0)">
<rect x="610.4763374407972" y="-10" width="23.121455063847066" height="10" fill="red" stroke="red" />
<g transform="translate(622.0370649727208 0)">
<text x="0" y="0" font-size="10" font-family="monospace" text-anchor="middle">vpu</text>
</g>
</g>
<g transform="translate(0.0 0)">
<rect x="826.400893601563" y="-10" width="25.638710252249894" height="10" fill="yellowgreen" stroke="yellowgreen" />
<g transform="translate(839.2202487276879 0)">
<text x="0" y="0" font-size="10" font-family="monospace" text-anchor="middle">rev</text>
</g>
</g>
<g transform="translate(0.0 0)">
<rect x="892.4089185419009" y="-10" width="59.015649416996666" height="10" fill="darkgrey" stroke="darkgrey" />
<g transform="translate(921.9167432503992 0)">
<text x="0" y="0" font-size="10" font-family="monospace" text-anchor="middle">3' LTR</text>
</g>
</g>
</g>
<g transform="translate(0 -169.60000000000002)">
<g transform="translate(0.0 0)">
<rect x="239.69397135644252" y="-10" width="280.7205693437245" height="10" fill="orange" stroke="orange" />
<g transform="translate(380.05425602830474 0)">
<text x="0" y="0" font-size="10" font-family="monospace" text-anchor="middle">pol</text>
</g>
</g>
<g transform="translate(0.0 0)">
<rect x="563.5808055975912" y="-10" width="27.130417030562626" height="10" fill="turquoise" stroke="turquoise" />
<g transform="translate(577.1460141128725 0)">
<text x="0" y="0" font-size="10" font-family="monospace" text-anchor="middle">vpr</text>
</g>
</g>
<g transform="translate(0.0 0)">
<rect x="601.8990234654991" y="-10" width="7.27207054427447" height="10" fill="yellowgreen" stroke="yellowgreen" />
<g transform="translate(605.5350587376363 0)">
<text x="0" y="0" font-size="10" font-family="monospace" text-anchor="middle">rev</text>
</g>
</g>
<g transform="translate(0.0 0)">
<rect x="625.6731002448581" y="-10" width="239.60540126648004" height="10" fill="salmon" stroke="salmon" />
<g transform="translate(745.4758008780982 0)">
<text x="0" y="0" font-size="10" font-family="monospace" text-anchor="middle">env</text>
</g>
</g>
</g>
<g transform="translate(0 -149.60000000000002)">
<g transform="translate(0.0 0)">
<rect x="255.35689252872604" y="-10" width="27.59657539878529" height="10" fill="orange" stroke="orange" />
<g transform="translate(269.1551802281187 0)">
<text x="0" y="0" font-size="10" font-family="monospace" text-anchor="middle">PR</text>
</g>
</g>
<g transform="translate(0.0 0)">
<rect x="283.04669960115586" y="-10" width="156.53598004919075" height="10" fill="darkorange" stroke="darkorange" />
<g transform="translate(361.31468962575127 0)">
<text x="0" y="0" font-size="10" font-family="monospace" text-anchor="middle">RT</text>
</g>
</g>
<g transform="translate(0.0 0)">
<rect x="439.67591132399116" y="-10" width="80.73862937617582" height="10" fill="orange" stroke="orange" />
<g transform="translate(480.04522601207907 0)">
<text x="0" y="0" font-size="10" font-family="monospace" text-anchor="middle">INT</text>
</g>
</g>
<g transform="translate(0.0 0)">
<rect x="708.1831314202802" y="-10" width="9.975789079966262" height="10" fill="salmon" stroke="salmon" />
<g transform="translate(713.1710259602634 0)">
<text x="0" y="0" font-size="10" font-family="monospace" text-anchor="middle">V3</text>
</g>
</g>
<g transform="translate(0.0 0)">
<rect x="768.5972559419453" y="-10" width="96.6812455693929" height="10" fill="salmon" stroke="salmon" />
<g transform="translate(816.9378787266417 0)">
<text x="0" y="0" font-size="10" font-family="monospace" text-anchor="middle">GP41</text>
</g>
</g>
</g>
<g transform="translate(0 -129.60000000000002)">
<g transform="translate(0.0 0)">
<rect x="45.30593180756656" y="-10" width="906.118636151331" height="10" fill="red" stroke="red" />
</g>
<g transform="translate(0.0 0)">
<rect x="693.7673227307987" y="-10" width="31.873003200602852" height="10" fill="yellow" stroke="yellow" />
</g>
<g transform="translate(0.0 0)">
<rect x="693.7673227307987" y="-10" width="31.358922503818917" height="10" fill="lightgray" stroke="lightgray" />
</g>
</g>
<g transform="translate(0.0 -131.10000000000002)">
<rect x="498.34982746232856" y="11.5" width="0.0" height="-11.5" fill="transparent" stroke="transparent" />
<g transform="translate(498.34982746232856 0)">
<text x="0" y="0" font-size="10" font-family="monospace" text-anchor="middle">HIV1-B-SE-KP411828-seed</text>
</g>
</g>
<g transform="translate(0 -101.10000000000002)">
<g transform="translate(0.0 0)">
<path d="M693.7673227307987,-20.0 L718.6403259314015,-20.0" stroke="black" />
<circle cx="709.7038243311001" cy="-10.0" r="10.0" fill="ivory" stroke="black" />
<path d="M725.6403259314015,-20.0 L718.6403259314015,-23.5 L718.6403259314015,-16.5 L725.6403259314015,-20.0" fill="black" />
<text x="709.7038243311001" y="-10.0" font-size="11.0" text-anchor="middle" dy="0.35em">3</text>
</g>
</g>
<g transform="translate(0 -90.10000000000002)">
<g transform="translate(0.0 0)">
<path d="M693.7673227307987,9.5 L718.6403259314015,9.5" stroke="black" />
<path d="M725.6403259314015,9.5 L718.6403259314015,6.0 L718.6403259314015,13.0 L725.6403259314015,9.5" fill="black" />
</g>
</g>
<g transform="translate(0 -70.10000000000002)">
<g transform="translate(0.0 0)">
<rect x="725.1262452346176" y="-10" width="0.5140806967839353" height="10" fill="yellow" stroke="yellow" />
</g>
<g transform="translate(0.0 0)">
<rect x="693.7673227307987" y="-10" width="31.358922503818917" height="10" fill="lightgrey" stroke="lightgrey" />
<g transform="translate(709.4467839827082 0)">
<text x="0" y="0" font-size="10" font-family="monospace" text-anchor="middle">3</text>
</g>
</g>
</g>
<g transform="translate(0.0 -60.10000000000002)">
<path d="M22.65296590378328,-0.0 L22.65296590378328,-0.0" stroke="black" />
<path d="M22.65296590378328,-0.0 L22.65296590378328,-3.5 L22.65296590378328,3.5 L22.65296590378328,-0.0" fill="black" />
</g>
<g transform="translate(0 -50.0)">
<g transform="translate(0.0 0)">
<rect x="22.65296590378328" y="-0.1" width="18.575432041102285" height="0.1" fill="green" stroke="green" />
</g>
<g transform="translate(0.0 0)">
<rect x="59.80382998598785" y="-0.1" width="18.575432041102296" height="0.1" fill="green" stroke="green" />
</g>
<g transform="translate(0.0 0)">
<rect x="96.95469406819244" y="-0.1" width="18.575432041102275" height="0.1" fill="green" stroke="green" />
</g>
<g transform="translate(0.0 0)">
<rect x="134.105558150397" y="-0.1" width="18.57543204110229" height="0.1" fill="green" stroke="green" />
</g>
<g transform="translate(0.0 0)">
<rect x="171.25642223260158" y="-0.1" width="18.57543204110229" height="0.1" fill="green" stroke="green" />
</g>
<g transform="translate(0.0 0)">
<rect x="208.40728631480619" y="-0.1" width="18.57543204110226" height="0.1" fill="green" stroke="green" />
</g>
<g transform="translate(0.0 0)">
<rect x="245.5581503970107" y="-0.1" width="18.575432041102317" height="0.1" fill="green" stroke="green" />
</g>
<g transform="translate(0.0 0)">
<rect x="282.7090144792153" y="-0.1" width="18.575432041102317" height="0.1" fill="green" stroke="green" />
</g>
<g transform="translate(0.0 0)">
<rect x="319.85987856141986" y="-0.1" width="18.57543204110226" height="0.1" fill="green" stroke="green" />
</g>
<g transform="translate(0.0 0)">
<rect x="357.01074264362444" y="-0.1" width="18.57543204110226" height="0.1" fill="green" stroke="green" />
</g>
<g transform="translate(0.0 0)">
<rect x="394.161606725829" y="-0.1" width="18.575432041102317" height="0.1" fill="green" stroke="green" />
</g>
<g transform="translate(0.0 0)">
<rect x="431.31247080803365" y="-0.1" width="18.57543204110226" height="0.1" fill="green" stroke="green" />
</g>
<g transform="translate(0.0 0)">
<rect x="468.4633348902382" y="-0.1" width="18.575432041102317" height="0.1" fill="green" stroke="green" />
</g>
<g transform="translate(0.0 0)">
<rect x="505.6141989724428" y="-0.1" width="18.57543204110226" height="0.1" fill="green" stroke="green" />
</g>
<g transform="translate(0.0 0)">
<rect x="542.7650630546473" y="-0.1" width="18.575432041102317" height="0.1" fill="green" stroke="green" />
</g>
<g transform="translate(0.0 0)">
<rect x="579.9159271368519" y="-0.1" width="18.575432041102317" height="0.1" fill="green" stroke="green" />
</g>
<g transform="translate(0.0 0)">
<rect x="617.0667912190565" y="-0.1" width="18.575432041102317" height="0.1" fill="green" stroke="green" />
</g>
<g transform="translate(0.0 0)">
<rect x="654.2176553012611" y="-0.1" width="18.575432041102317" height="0.1" fill="green" stroke="green" />
</g>
<g transform="translate(0.0 0)">
<rect x="691.3685193834657" y="-0.1" width="18.575432041102317" height="0.1" fill="green" stroke="green" />
</g>
<g transform="translate(0.0 0)">
<rect x="728.5193834656702" y="-0.1" width="18.575432041102317" height="0.1" fill="green" stroke="green" />
</g>
<g transform="translate(0.0 0)">
<rect x="765.6702475478749" y="-0.1" width="18.575432041102204" height="0.1" fill="green" stroke="green" />
</g>
<g transform="translate(0.0 0)">
<rect x="802.8211116300794" y="-0.1" width="18.575432041102317" height="0.1" fill="green" stroke="green" />
</g>
<g transform="translate(0.0 0)">
<rect x="839.971975712284" y="-0.1" width="18.575432041102317" height="0.1" fill="green" stroke="green" />
</g>
<g transform="translate(0.0 0)">
<rect x="877.1228397944888" y="-0.1" width="18.575432041102204" height="0.1" fill="green" stroke="green" />
</g>
<g transform="translate(0.0 0)">
<rect x="914.2737038766932" y="-0.1" width="18.57543204110243" height="0.1" fill="green" stroke="green" />
</g>
<g transform="translate(0.0 0)">
<rect x="951.4245679588978" y="-0.1" width="18.575432041102204" height="0.1" fill="green" stroke="green" />
</g>
</g>
<g transform="translate(0.0 -40.0)">
<path d="M22.65296590378328,-0.0 L22.65296590378328,-0.0" stroke="black" />
<path d="M22.65296590378328,-0.0 L22.65296590378328,-3.5 L22.65296590378328,3.5 L22.65296590378328,-0.0" fill="black" />
</g>
<g transform="translate(0.0 -30.0)">
<rect x="22.65296590378328" y="0" width="0.0" height="0" fill="lightgrey" stroke="lightgrey" />
<g transform="translate(22.65296590378328 0)">
<text x="0" y="0" font-size="12" font-family="monospace" text-anchor="left">discards:</text>
</g>
</g>
<g transform="translate(0 -10.0)">
<g transform="translate(0.0 0)">
<rect x="693.6645065914419" y="-10" width="0.7197129754974867" height="10" fill="yellow" stroke="yellow" />
</g>
<g transform="translate(0.0 0)">
<rect x="694.3842195669394" y="-10" width="30.742025667678263" height="10" fill="lightgrey" stroke="lightgrey" />
<g transform="translate(709.7552324007785 0)">
<text x="0" y="0" font-size="10" font-family="monospace" text-anchor="middle">4</text>
</g>
</g>
</g>
</svg>