<?xml version="1.0" encoding="UTF-8"?>
<svg xmlns="http://www.w3.org/2000/svg" xmlns:xlink="http://www.w3.org/1999/xlink"
     width="970.0" height="295.0" viewBox="0.0 -295.0 970.0 295.0">
<defs>
</defs>
<g transform="translate(0 -280.0)">
<g transform="translate(0.0 0)">
<rect x="79.61528268249893" y="-10" width="44.73270122564237" height="10" fill="#ff7f0e" stroke="#ff7f0e" />
<g transform="translate(101.98163329532011 0)">
<text x="0" y="0" font-size="10" font-family="monospace" text-anchor="middle">exon2</text>
</g>
</g>
<g transform="translate(0.0 0)">
<rect x="165.42224860231846" y="-10" width="45.73045664331471" height="10" fill="#2ca02c" stroke="#2ca02c" />
<g transform="translate(188.28747692397582 0)">
<text x="0" y="0" font-size="10" font-family="monospace" text-anchor="middle">exon3</text>
</g>
</g>
</g>
<g transform="translate(0 -260.0)">
<g transform="translate(0.0 0)">
<rect x="46.1904761904762" y="-10" width="164.96222905515697" height="10" fill="red" stroke="red" />
</g>
<g transform="translate(0.0 0)">
<rect x="59.341164093470205" y="-10" width="38.40000867674254" height="10" fill="yellow" stroke="yellow" />
</g>
<g transform="translate(0.0 0)">
<rect x="118.67706791177922" y="-10" width="35.45425458647189" height="10" fill="yellow" stroke="yellow" />
</g>
<g transform="translate(0.0 0)">
<rect x="59.341164093470205" y="-10" width="38.40000867674254" height="10" fill="lightgray" stroke="lightgray" />
</g>
<g transform="translate(0.0 0)">
<rect x="118.67706791177922" y="-10" width="35.45425458647189" height="10" fill="lightgray" stroke="lightgray" />
</g>
</g>
<g transform="translate(0.0 -261.5)">
<rect x="128.6663304428935" y="11.5" width="0.0" height="-11.5" fill="transparent" stroke="transparent" />
<g transform="translate(128.6663304428935 0)">
<text x="0" y="0" font-size="10" font-family="monospace" text-anchor="middle">HLA-B-seed</text>
</g>
</g>
<g transform="translate(0 -231.5)">
<g transform="translate(0.0 0)">
<path d="M59.341164093470205,-20.0 L90.74117277021274,-20.0" stroke="black" />
<circle cx="78.54116843184147" cy="-10.0" r="10.0" fill="ivory" stroke="black" />
<path d="M97.74117277021274,-20.0 L90.74117277021274,-23.5 L90.74117277021274,-16.5 L97.74117277021274,-20.0" fill="black" />
<text x="78.54116843184147" y="-10.0" font-size="11.0" text-anchor="middle" dy="0.35em">1</text>
</g>
<g transform="translate(0.0 0)">
<path d="M118.67706791177922,-20.0 L147.1313224982511,-20.0" stroke="black" />
<circle cx="136.40419520501516" cy="-10.0" r="10.0" fill="ivory" stroke="black" />
<path d="M154.1313224982511,-20.0 L147.1313224982511,-23.5 L147.1313224982511,-16.5 L154.1313224982511,-20.0" fill="black" />
<text x="136.40419520501516" y="-10.0" font-size="11.0" text-anchor="middle" dy="0.35em">2</text>
</g>
</g>
<g transform="translate(0 -220.5)">
<g transform="translate(0.0 0)">
<path d="M59.341164093470205,9.5 L90.74117277021274,9.5" stroke="black" />
<path d="M97.74117277021274,9.5 L90.74117277021274,6.0 L90.74117277021274,13.0 L97.74117277021274,9.5" fill="black" />
</g>
</g>
<g transform="translate(0 -200.5)">
<g transform="translate(0.0 0)">
<rect x="59.341164093470205" y="-10" width="38.40000867674254" height="10" fill="lightgrey" stroke="lightgrey" />
<g transform="translate(78.54116843184147 0)">
<text x="0" y="0" font-size="10" font-family="monospace" text-anchor="middle">1</text>
</g>
</g>
</g>
<g transform="translate(0 -189.5)">
<g transform="translate(0.0 0)">
<path d="M118.67706791177922,9.5 L147.1313224982511,9.5" stroke="black" />
<path d="M154.1313224982511,9.5 L147.1313224982511,6.0 L147.1313224982511,13.0 L154.1313224982511,9.5" fill="black" />
</g>
</g>
<g transform="translate(0 -169.5)">
<g transform="translate(0.0 0)">
<rect x="118.67706791177922" y="-10" width="35.45425458647189" height="10" fill="lightgrey" stroke="lightgrey" />
<g transform="translate(136.40419520501516 0)">
<text x="0" y="0" font-size="10" font-family="monospace" text-anchor="middle">2</text>
</g>
</g>
</g>
<g transform="translate(0 -149.5)">
<g transform="translate(0.0 0)">
<rect x="46.28552810155856" y="-10" width="60.167859715138256" height="10" fill="darkgrey" stroke="darkgrey" />
<g transform="translate(76.36945795912769 0)">
<text x="0" y="0" font-size="10" font-family="monospace" text-anchor="middle">5' LTR</text>
</g>
</g>
<g transform="translate(0.0 0)">
<rect x="121.28148594554604" y="-10" width="142.76797044571515" height="10" fill="lightblue" stroke="lightblue" />
<g transform="translate(192.6654711684036 0)">
<text x="0" y="0" font-size="10" font-family="monospace" text-anchor="middle">gag</text>
</g>
</g>
<g transform="translate(0.0 0)">
<rect x="525.3471599566877" y="-10" width="54.94000460560801" height="10" fill="steelblue" stroke="steelblue" />
<g transform="translate(552.8171622594917 0)">
<text x="0" y="0" font-size="10" font-family="monospace" text-anchor="middle">vif</text>
</g>
</g>
<g transform="translate(0.0 0)">
<rect x="842.7254910607109" y="-10" width="8.459620086330574" height="10" fill="plum" stroke="plum" />
<g transform="translate(846.9553011038761 0)">
<text x="0" y="0" font-size="10" font-family="monospace" text-anchor="middle">tat</text>
</g>
</g>
<g transform="translate(0.0 0)">
<rect x="882.3621379820578" y="-10" width="58.93218487106731" height="10" fill="mediumaquamarine" stroke="mediumaquamarine" />
<g transform="translate(911.8282304175914 0)">
<text x="0" y="0" font-size="10" font-family="monospace" text-anchor="middle">nef</text>
</g>
</g>
</g>
<g transform="translate(0 -129.5)">
<g transform="translate(0.0 0)">
<rect x="600.4381697117576" y="-10" width="20.72131661595597" height="10" fill="plum" stroke="plum" />
<g transform="translate(610.7988280197355 0)">
<text x="0" y="0" font-size="10" font-family="monospace" text-anchor="middle">tat</text>
</g>
</g>
<g transform="translate(0.0 0)">
<rect x="622.3951611717843" y="-10" width="23.57287394842706" height="10" fill="red" stroke="red" />
<g transform="translate(634.1815981459978 0)">
<text x="0" y="0" font-size="10" font-family="monospace" text-anchor="middle">vpu</text>
</g>
</g>
<g transform="translate(0.0 0)">
<rect x="842.535387238546" y="-10" width="26.13927554765087" height="10" fill="yellowgreen" stroke="yellowgreen" />
<g transform="translate(855.6050250123715 0)">
<text x="0" y="0" font-size="10" font-family="monospace" text-anchor="middle">rev</text>
</g>
</g>
<g transform="translate(0.0 0)">
<rect x="909.8321402848617" y="-10" width="60.16785971513832" height="10" fill="darkgrey" stroke="darkgrey" />
<g transform="translate(939.9160701424308 0)">
<text x="0" y="0" font-size="10" font-family="monospace" text-anchor="middle">3' LTR</text>
</g>
</g>
</g>
<g transform="translate(0 -109.5)">
<g transform="translate(0.0 0)">
<rect x="244.37371079721117" y="-10" width="286.20130426900664" height="10" fill="orange" stroke="orange" />
<g transform="translate(387.4743629317145 0)">
<text x="0" y="0" font-size="10" font-family="monospace" text-anchor="middle">pol</text>
</g>
</g>
<g transform="translate(0.0 0)">
<rect x="574.5840498973538" y="-10" width="27.66010612496882" height="10" fill="turquoise" stroke="turquoise" />
<g transform="translate(588.4141029598381 0)">
<text x="0" y="0" font-size="10" font-family="monospace" text-anchor="middle">vpr</text>
</g>
</g>
<g transform="translate(0.0 0)">
<rect x="613.6503853522065" y="-10" width="7.414049064424717" height="10" fill="yellowgreen" stroke="yellowgreen" />
<g transform="translate(617.3574098844189 0)">
<text x="0" y="0" font-size="10" font-family="monospace" text-anchor="middle">rev</text>
</g>
</g>
<g transform="translate(0.0 0)">
<rect x="637.8886226782101" y="-10" width="244.28341148168283" height="10" fill="salmon" stroke="salmon" />
<g transform="translate(760.0303284190516 0)">
<text x="0" y="0" font-size="10" font-family="monospace" text-anchor="middle">env</text>
</g>
</g>
</g>
<g transform="translate(0 -89.5)">
<g transform="translate(0.0 0)">
<rect x="260.3424318590488" y="-10" width="28.13536568038063" height="10" fill="orange" stroke="orange" />
<g transform="translate(274.4101146992391 0)">
<text x="0" y="0" font-size="10" font-family="monospace" text-anchor="middle">PR</text>
</g>
</g>
<g transform="translate(0.0 0)">
<rect x="288.5728494505118" y="-10" width="159.59215870729395" height="10" fill="darkorange" stroke="darkorange" />
<g transform="translate(368.36892880415877 0)">
<text x="0" y="0" font-size="10" font-family="monospace" text-anchor="middle">RT</text>
</g>
</g>
<g transform="translate(0.0 0)">
<rect x="448.26006006888815" y="-10" width="82.31495499732966" height="10" fill="orange" stroke="orange" />
<g transform="translate(489.417537567553 0)">
<text x="0" y="0" font-size="10" font-family="monospace" text-anchor="middle">INT</text>
</g>
</g>
<g transform="translate(0.0 0)">
<rect x="722.0095639861049" y="-10" width="10.170554485813227" height="10" fill="salmon" stroke="salmon" />
<g transform="translate(727.0948412290115 0)">
<text x="0" y="0" font-size="10" font-family="monospace" text-anchor="middle">V3</text>
</g>
</g>
<g transform="translate(0.0 0)">
<rect x="783.6032023674786" y="-10" width="98.56883179241436" height="10" fill="salmon" stroke="salmon" />
<g transform="translate(832.8876182636858 0)">
<text x="0" y="0" font-size="10" font-family="monospace" text-anchor="middle">GP41</text>
</g>
</g>
</g>
<g transform="translate(0 -69.5)">
<g transform="translate(0.0 0)">
<rect x="46.1904761904762" y="-10" width="923.8095238095239" height="10" fill="red" stroke="red" />
</g>
<g transform="translate(0.0 0)">
<rect x="712.0361060948694" y="-10" width="31.772061973633527" height="10" fill="yellow" stroke="yellow" />
</g>
<g transform="translate(0.0 0)">
<rect x="712.0361060948694" y="-10" width="31.772061973633527" height="10" fill="lightgray" stroke="lightgray" />
</g>
</g>
<g transform="translate(0.0 -71.0)">
<rect x="508.1425805716889" y="11.5" width="0.0" height="-11.5" fill="transparent" stroke="transparent" />
<g transform="translate(508.1425805716889 0)">
<text x="0" y="0" font-size="10" font-family="monospace" text-anchor="middle">HIV1-C-SE-KP411835-seed</text>
</g>
</g>
<g transform="translate(0 -41.0)">
<g transform="translate(0.0 0)">
<path d="M712.0361060948694,-20.0 L736.8081680685029,-20.0" stroke="black" />
<circle cx="727.9221370816862" cy="-10.0" r="10.0" fill="ivory" stroke="black" />
<path d="M743.8081680685029,-20.0 L736.8081680685029,-23.5 L736.8081680685029,-16.5 L743.8081680685029,-20.0" fill="black" />
<text x="727.9221370816862" y="-10.0" font-size="11.0" text-anchor="middle" dy="0.35em">3</text>
</g>
</g>
<g transform="translate(0 -30.0)">
<g transform="translate(0.0 0)">
<path d="M712.0361060948694,9.5 L736.8081680685029,9.5" stroke="black" />
<path d="M743.8081680685029,9.5 L736.8081680685029,6.0 L736.8081680685029,13.0 L743.8081680685029,9.5" fill="black" />
</g>
</g>
<g transform="translate(0 -10.0)">
<g transform="translate(0.0 0)">
<rect x="712.0361060948694" y="-10" width="31.772061973633527" height="10" fill="lightgrey" stroke="lightgrey" />
<g transform="translate(727.9221370816862 0)">
<text x="0" y="0" font-size="10" font-family="monospace" text-anchor="middle">3</text>
</g>
</g>
</g>
</svg>